<svg xmlns="http://www.w3.org/2000/svg" xmlns:xlink="http://www.w3.org/1999/xlink" width="150" height="50" viewBox="0 0 1674.07 461.5"><defs><linearGradient id="linear-gradient" x1="221.01" y1="305.4" x2="231.29" y2="305.4" gradientUnits="userSpaceOnUse"><stop offset="0" stop-color="#5d59ea"/><stop offset="1" stop-color="#9a91ff"/></linearGradient><linearGradient id="linear-gradient-2" x1="193.61" y1="319.04" x2="207.86" y2="319.04" xlink:href="#linear-gradient"/><linearGradient id="linear-gradient-3" x1="0" y1="230.75" x2="577.07" y2="230.75" xlink:href="#linear-gradient"/><linearGradient id="linear-gradient-4" x1="368.3" y1="396.9" x2="398.43" y2="396.9" xlink:href="#linear-gradient"/></defs><title>logo-2</title><g id="Layer_2" data-name="Layer 2"><g id="Layer_1-2" data-name="Layer 1"><path d="M230.84,302.57l-9.83.88v4.78h10.28C231.14,306.34,231,304.77,230.84,302.57Z" style="fill:url(#linear-gradient)"/><path d="M207.86,322.14c-.16-2.4-.29-4.39-.41-6.24l-13.84.61A16.9,16.9,0,0,0,207.86,322.14Z" style="fill:url(#linear-gradient-2)"/><path d="M448.45,0H128.62A128.61,128.61,0,0,0,0,128.62V332.88A128.61,128.61,0,0,0,128.62,461.5H448.45A128.61,128.61,0,0,0,577.07,332.88V128.62A128.61,128.61,0,0,0,448.45,0Zm93.66,199.29c-11.73-.29-21.63,4.29-29.85,12.19-6.77,6.5-13,13.58-19.19,20.67-8,9.18-16.1,18.18-26.82,24.28-3.18,1.8-6.58,3.22-10.17,5a108.54,108.54,0,0,0,23.39,11.09c12,4,23.95,4.41,35.79-.82,7.34-3.24,14.7-4,22,.59-8.55-1.51-15.86,1.63-23,5.7-10.6,6-22,5.15-33.21,2.8-11-2.3-21.75-5.85-32.79-7.93-18.26-3.45-36.78-3.95-55.32-3-14.89.74-29.51,3-43.37,8.81-20.8,8.73-34.21,24.13-40.47,45.7-2.34,8.06-.93,16.09,1.23,24,1.43,5.21,3,10.42,4,15.72,2.21,11.32-.45,21.91-5.46,32.05-.62,1.26-1.26,2.51-1.88,3.77a2.45,2.45,0,0,0,0,.58c5.57.69,11.38.73,16.76,2.25a22.17,22.17,0,0,0,18.95-2.62c2.62-1.63,5.65-2.58,8.57-3.87a29.8,29.8,0,0,1-2-3.87c-.89-2.58-.69-4.94,2.06-6.4s5.89-2.75,8.5-4.59,4.81-4.33,7.34-6.67l10.17,4.9.34-.68c-3.29-1.82-6.47-3.92-9.92-5.32-1.63-.66-3.88-.31-5.71.14-4.79,1.19-8.88-2.17-7.54-7,1-3.51,0-5.9-1.87-8.56-2.86-4.06-5.51-8.28-8.18-12.48a11.82,11.82,0,0,1-.9-2.63l1.17-.69c.7,1.18,1.4,2.36,2.09,3.54l.89-.71c-.62-1.15-1.25-2.3-2-3.77l13.91-12.08,2.38,6L357,338.52l.24.47,12.94-5.49c3.42,7.69,6.85,15.14,9.93,22.72.39.95-1,2.64-1.66,4.12,7.58-5.66,11,1.44,16.16,6,1-2.64,2-4.82,2.64-7.11,1.25-4.63,2.29-9.32,3.47-14.26-1.15,1-2.59,2.08-3.81,3.37-2.43,2.57-3.69,2.76-6.32.6l-8-6.62a10.26,10.26,0,0,1,0-1.66,8.8,8.8,0,0,0-2.77-8.39c-1.4-1.32-2.11-3.76-2.37-5.79-.22-1.74-.21-3-2.2-3.63a18.82,18.82,0,0,1-3.74-2.26l1-1.33h5.1c-2.91-2.31-6-3.61-5.48-7.89,5.27,1.53,8-1.9,11-5.37s7.18-4.92,12.47-4.88l-3-3.66,6,2.57c.23-.46.55-1.08,1-2l1.22,2.71,5.76-1.59c.08.21.17.43.26.64l-3.39,2.26c3,1.46,6.13,2.37,8.55,4.19,8.45,6.37,9.8,20.5,3.07,28.63a2.67,2.67,0,0,0-.66,2.19c1.29,2.71,2.17,6.13,4.35,7.81,9.9,7.66,14.11,18,15.67,29.92,1.06,8.08,1.81,16.18-.45,24.17-.93,3.29-2.45,6.41-3.69,9.6,2.88-.85,5.95-2,9.12-2.64,10.77-2.12,20.84.6,30.55,5,2.54,1.16,4.5,1.51,7.14-.2,4.4-2.85,9.51-3.45,14.7-2.63,7.39,1.18,13.81,4.56,20.66,9.09h-446c9.08-9.27,25-11.64,36.22-5.66,1.07.57,2.85.27,4.15-.12,6.1-1.81,12-4.24,18.23-5.61,7.58-1.67,15-.28,22.2,2.73,3.9,1.64,8.12,2.53,12.19,3.75.12-.41.23-.82.35-1.24a26.08,26.08,0,0,0-2.84-.69c-2.87-.36-4.65-2.34-3.39-4.85,3-5.93,4-12.23,5-18.65.34-2.14,1.9-4.08,2.81-6.15.52-1.18.87-2.43,1.44-4.09-8.71.19-16.87,2-23.58-1.08-3.89,1.18-7.05,1.91-10,3.1-5.32,2.13-10.56,4.48-15.75,6.89a2.86,2.86,0,0,0-1,2.39,18.24,18.24,0,0,0,1.27,4.32c1.31,3.39.64,6.87-1.58,7.79-2.92,1.22-7-.55-8.36-3.77a34.93,34.93,0,0,1-1-3.75,77.64,77.64,0,0,0-2.47-7.8c-1-2.31-.77-4.05,1.54-5.14,6.34-3,12.71-5.9,19.1-8.74a50.12,50.12,0,0,1,5.39-1.74l-1.13-3.77c5.08-2.37,8.15-6.42,10.39-11a379.52,379.52,0,0,1,36-60.43,8.22,8.22,0,0,0,.8-2.76,21.61,21.61,0,0,0-2.93-.64q-5.72-.48-11.45-.82c-1.57-.1-3.15,0-4.89,0-5.87,9.51-8.83,11.59-17.45,9.63l10.8-9.23-1-1.16-9.06,7.25c2.14-7,7.55-8.94,14.3-9.93l-4-3.44,1.5-1.73,4.19,3.55c.64-1.28,1.15-2.32,2.06-4.16l3.08,3.76-.4,1.17a23.49,23.49,0,0,1,2.74-1.59,5.15,5.15,0,0,1,2.3-.35c2.32.17,3.93-.17,5-2.8a54.83,54.83,0,0,0,2.51-8.81c2.24-9.46,15.82-12.41,23.57-5.37a42.26,42.26,0,0,0,4.72,3.17c.11-1.75.17-2.71.23-3.85l4,4.21c-2.15,3.57-5.41,6.68-5.16,11.34.06,1.13.19,2.58.9,3.27,1.76,1.73.88,3.3.3,5a62,62,0,0,1-2,6.1A3.78,3.78,0,0,1,194,297.8a25.1,25.1,0,0,1-5.35-.88c-2.19,7.86,5.92,13.26,18.95,12.19,0-2.81-.18-5.7.09-8.55a4.64,4.64,0,0,1,1.86-3.24,36.75,36.75,0,0,1,20.66-4.41,3.66,3.66,0,0,1,2.37,1.47c-8.08-.17-15.73.86-22.14,4.42a70.75,70.75,0,0,1,1.27,8c.2,4.4.06,8.81.06,13.22l.93.11a15.17,15.17,0,0,0,.4-2.38c0-4.66-.06-9.32.06-14a3.15,3.15,0,0,1,1.32-2.43c7-2.46,14.14-3.95,21.89-2.5v32.56l-23,2.5c-.11-1.62-.28-4-.45-6.38l-.93,0v7.94l-1.28.42-3.73-7.24c-2,.15-4.54.48-7.09.52a18.29,18.29,0,0,1-11.74-4c-1.12-.88-2.82-1-4-1.87s-1.67-2.07-2.81-3.57c-2.85,9.59-5.39,18.94-8.45,28.13a29.74,29.74,0,0,0-.63,18c1.84,6.68,1.75,13.3-2,19.75-2.06,3.57-3,7.87-4,11.94-1.18,4.67.24,6.28,4.77,7.67,1.82.55,3.24,2.38,5.52,4.17,2-1.1,5.09-2.31,7.6-4.22,7.11-5.41,14.78-5.7,22.78-2.92,4.17,1.45,8.1,3.58,12.2,5.26,8.21,3.36,15.36,2.41,21.83-4.37,11.91-12.49,18-27.44,19.18-44.36,1.84-26.17-4.26-50.31-21.49-70.49-8.53-10-18.85-18.46-28.42-27.56a4.67,4.67,0,0,0-2.6-1.05c-18.65-1.9-37.33-3.28-56.08-1.89a12.65,12.65,0,0,0-5.33,1.94c-8.21,5-16.27,10.31-24.49,15.32-17,10.38-35.57,15.39-55.43,16.41-13.78.72-19.27,2.72-31,9.43l-.64-.55c2.25-2.4,4.26-5.08,6.79-7.14,6.44-5.26,14.33-6.88,22.3-8.1,5.34-.82,10.72-1.46,16.07-2.27,20.36-3.09,37.21-13.51,53.23-25.61,1.81-1.36,3.5-2.86,5.37-4.41-4.09-6.46-9.92-9.39-17.14-8.32a68.64,68.64,0,0,0-16.54,4.43c-12.3,5.19-24.39,4.59-36.77.58a66.69,66.69,0,0,0-14.54-3.15c-4.29-.38-8.7.54-13,.88a19.31,19.31,0,0,1,14.91-5.6c8.53.34,17,1.21,25.53,2.14,8.72.95,16.82-.26,24.1-5.46,5.27-3.75,11.11-5.1,18.43-3.29-2.31-4-4-7.24-6-10.27C106.89,208.6,92.09,197.08,75.35,188c-9.3-5-19.12-9.11-28.71-13.61-1-.44-1.94-.84-2.9-1.26l.19-.77c6.53,1.18,13.11,2.11,19.58,3.57,25.71,5.83,47.69,17.89,64,39.1,2.24,2.91,4.23,6,6.19,9.12,7.8,12.38,18.61,17,32.78,13.44a93.21,93.21,0,0,0,13.34-5,3.3,3.3,0,0,0,1.5-2.78c-3.24-12.9-7.75-25.25-16.53-35.58a38.41,38.41,0,0,0-26.22-14c-12.67-1.3-24.39-4.88-33.35-14.71-6-6.61-9.6-14.48-11.93-23.06,1.18,1.87,2.45,3.69,3.52,5.63,8.37,15.14,20.94,23.76,38.37,25.24a124.31,124.31,0,0,1,14.36,2.6,42.65,42.65,0,0,1,26.86,17.41,3.46,3.46,0,0,0,2.07,1.5c-.8-6.15-1.46-12.32-2.44-18.44a94,94,0,0,0-7.81-26.36c-5.65-11.7-14.37-18.68-27.81-19.85a144.75,144.75,0,0,1-25.81-4.63c-11.17-3.08-17.28-11.06-17.93-21.36,0-.51,0-1,0-1.64.38.19.65.23.71.36,5.48,11.73,15.64,16.15,27.62,17.72,6.65.87,13.33,1.51,19.95,2.6,3.68.61,7.25,1.94,11.13,3,.08-16.89,1.41-33.81-5.58-49.91a71.39,71.39,0,0,1-3.94-12.68c-1.23-5.49-.44-10.69,4-14.87-3,7.85-.19,14.93,2.85,21.92,3.84,8.83,8.59,17.42,9.3,27.2.74,10.24.69,20.54,1.1,30.81a6,6,0,0,0,1.24,3.73c7.25,7.23,13.7,15,18.52,24.12.08.16.35.22.8.49,10.74-15.45,20.72-31.1,21.65-50.83a144.18,144.18,0,0,1,2.81-22.49c1.54-7.47,6-13.31,13.49-17.35a19.79,19.79,0,0,1-1,2c-5.47,7.8-7.75,16.6-8.15,26-.31,7.46-.34,14.93-.72,22.39a55.25,55.25,0,0,1-6.26,23c-3.5,6.71-7.36,13.24-10.79,20a24.18,24.18,0,0,0-2.76,8.42c-1.3,14.1-1,28.14,3.15,41.83,6.8,22.27,22.11,35.83,44,42.57,2.85.87,5.75,1.56,9,2.42-1.78-6.91-3.49-13.24-5-19.62-4.31-17.78-2.45-35.44.9-53.13,2.51-13.28,5.29-26.55,5-40.19-.2-11.65-2.25-23-8-33.15-9.09-16.16-9.57-32.93-5-50.29a99.18,99.18,0,0,1,4.92-14.41c-.49,4.53-.92,9.06-1.47,13.58-2.1,17.34.64,33.59,10.17,48.54a62.44,62.44,0,0,1,10,27.67c11.2-19.41,23.92-36.36,40.68-50a31.61,31.61,0,0,1,6.1-4c-4.25,5-8.62,9.83-12.72,14.91-16.7,20.77-29.23,43.64-34.82,69.95-5,23.48-3.49,46.69,3,69.69.2.71.49,1.4.78,2.2.33-.29.67-.45.78-.71a75.81,75.81,0,0,1,23.24-30.39c19.79-15.64,28.41-36.94,32.39-61a322.93,322.93,0,0,1,7.17-34.56c1.64-5.83,5.83-11,8.89-16.38a6.9,6.9,0,0,1,2.71-2.87c-4.36,24.13-8,48-6.5,72.22.32.14.56.34.69.28C346,158.1,358.37,151.36,367.6,140c4.54-5.61,6.82-12.18,8.61-19.05,1.75-6.69,3.51-13.41,5.88-19.89,4.14-11.32,12.67-18.3,23.77-22.39a14.42,14.42,0,0,1,2.27-.22c-1.54,1.24-2.4,1.89-3.2,2.6a58.85,58.85,0,0,0-19.61,35c-.69,4-1.86,8-2.73,12-3.89,18-14.83,30.15-31.35,37.63-3.84,1.74-7.74,3.35-11.59,5.09-5.92,2.7-10.65,6.88-13.3,12.8-6.65,14.85-16.44,27.47-27.5,39.13-20,21.08-20.5,48.22-6.68,71.87,1.18,2,2.5,4,3.83,6,3.77-5.8,7.14-11.45,11-16.78A113.42,113.42,0,0,1,353.17,246c12.65-5.75,17.93-14.23,17.51-28.21-.21-6.81-.7-13.64-.45-20.43.5-13.48,5.72-25.23,14.41-35.41,12.94-15.16,30-24.17,48.32-31.1-1.72,1.08-3.44,2.15-5.13,3.24s-3.45,2.24-5.15,3.4c-12.16,8.3-23.3,17.68-31.39,30.19-9,13.86-11.45,28.76-6.69,44.7.33,1.12.73,2.21,1.27,3.81,11.86-10.09,26.3-13.08,40.22-17.27a74.48,74.48,0,0,0,32.07-19.54,101.49,101.49,0,0,1,13.39-11.25c2.77-2,6.31-2.88,9.57-3.7-5.29,6.2-10.56,12.41-15.89,18.57-2,2.37-4.14,4.72-6.38,6.91-9,8.75-19.7,14.3-31.63,17.82A101.56,101.56,0,0,0,399.77,220c-6.69,4.42-12.63,9.63-16.21,16.92-3.5,7.14-6.76,14.33-14.42,18.39,19.63,2.35,39,4.88,58.49,2.46,21.89-2.71,39.19-13.72,54.45-29.06a314.41,314.41,0,0,1,26.51-23.34,41.5,41.5,0,0,1,21.29-9,20.35,20.35,0,0,1,12.47,2.43C542.27,199,542.19,199.29,542.11,199.29Z" style="fill:url(#linear-gradient-3)"/><path d="M398.43,407.52a39.08,39.08,0,0,0-7.65-9.17c-3.72-3.05-6.88-6.23-7.68-12.08l-14.8,16.4C379.34,398.45,389.21,400,398.43,407.52Z" style="fill:url(#linear-gradient-4)"/><path d="M735.87,348.94q-23.94,0-40.27-10.7a57.1,57.1,0,0,1-23-29.11l27.15-15.88q9.43,24.63,37,24.63,13.35,0,19.56-4.84a14.83,14.83,0,0,0,6.21-12.19q0-8.52-7.59-13.24t-27.15-10.24a165.64,165.64,0,0,1-18.3-6.44,78.78,78.78,0,0,1-15-8.63,35.23,35.23,0,0,1-11.39-13.69,44.8,44.8,0,0,1-3.91-19.33q0-21.85,15.53-34.86t37.4-13q19.56,0,34.4,9.55a64.17,64.17,0,0,1,23.13,26.58L763,233q-9.67-20.72-30.84-20.71-9.9,0-15.54,4.49A14.15,14.15,0,0,0,711,228.36a14.63,14.63,0,0,0,6.33,12.31q6.31,4.72,24.27,10.24,7.36,2.31,11.16,3.57t10.36,3.91a62.48,62.48,0,0,1,10.12,4.95,78.84,78.84,0,0,1,8.17,6.21,31.69,31.69,0,0,1,7,8.06,45.82,45.82,0,0,1,5.87,22.78q0,22.32-16.22,35.44T735.87,348.94Z"/><path d="M880.62,227.44q23.24,0,39.69,17.6t16.46,43.15q0,25.55-16.46,43.15t-39.69,17.6q-24.17,0-37.28-16.8v59.61H813.65V230.66h29.69v13.58Q856.45,227.44,880.62,227.44Zm-28.31,84.11q9,9.09,22.78,9.09t22.9-9.09q9.09-9.09,9.09-23.36T898,264.83q-9.09-9.09-22.9-9.09t-22.78,9.09q-9,9.1-9,23.36T852.31,311.55Z"/><path d="M987.39,250.45a31,31,0,0,1,13.69-16.57,41.8,41.8,0,0,1,21.29-5.52V261.5A35,35,0,0,0,998.09,267q-10.7,7.14-10.7,23.7v55H957.71V230.66h29.68Z"/><path d="M1133.29,331.34Q1115.56,349,1090,348.94t-43.14-17.6q-17.61-17.61-17.61-43.15T1046.88,245q17.59-17.59,43.14-17.6t43.27,17.6Q1151,262.65,1151,288.19T1133.29,331.34ZM1067.82,311q8.85,9,22.2,9t22.33-9q9-9,9-22.78t-9-22.78a30.34,30.34,0,0,0-22.33-9q-13.35,0-22.2,9T1059,288.19Q1059,302,1067.82,311Z"/><path d="M1260.08,230.66h29V340.2q0,26.69-17.61,40.73T1229,395q-18.64,0-32.8-7.14a49.81,49.81,0,0,1-21.74-20.94l25.31-14.5q8.74,16.11,30.15,16.11,14,0,22.09-7.36t8-20.94V327.77q-13.11,17.49-36.82,17.49-24.39,0-40.84-17.14T1166,286.35q0-24.39,16.57-41.65t40.73-17.26q23.7,0,36.82,17.49ZM1204.74,309q9.09,8.85,23.13,8.86T1251,309q9.09-8.86,9.09-22.67,0-13.58-9.09-22.44t-23.12-8.86q-14,0-23.13,8.86t-9.09,22.44Q1195.65,300.15,1204.74,309Z"/><path d="M1316,345.72v-168h29.69v168Z"/><path d="M1397.92,300.39q6,21.63,32.45,21.63,17,0,25.78-11.51l23.93,13.81q-17,24.63-50.17,24.62-28.53,0-45.79-17.26t-17.26-43.49q0-26,17-43.38t43.72-17.37q25.32,0,41.77,17.49t16.45,43.26a69.25,69.25,0,0,1-1.15,12.2Zm-.46-23h58.69q-2.54-11.73-10.48-17.48a30,30,0,0,0-18.06-5.76q-12,0-19.79,6.1T1397.46,277.37Z"/><path d="M1568.9,259.19h-26v47.87c0,4,1,6.9,3,8.75s4.91,2.87,8.75,3.1a127.81,127.81,0,0,0,14.26-.11v26.92q-30.6,3.45-43.14-5.75t-12.54-32.91V259.19h-20V230.66h20V207.42l29.68-9v32.22h26Z"/><path d="M1614.7,263.34q0,4.61,6.1,7.48a81.16,81.16,0,0,0,14.84,5.06,154.83,154.83,0,0,1,17.49,5.52A34,34,0,0,1,1668,292.56q6.1,7.83,6.1,19.56,0,17.73-13.23,27.27t-33,9.55q-35.44,0-48.33-27.38l25.77-14.5q5.07,15,22.56,15,15.87,0,15.87-9.9,0-4.59-6.09-7.48a87.61,87.61,0,0,0-14.85-5.17,156.7,156.7,0,0,1-17.49-5.76,35.81,35.81,0,0,1-14.84-10.93q-6.11-7.47-6.1-18.75,0-17,12.54-26.81t31.19-9.78a52.11,52.11,0,0,1,25.54,6.33,46.28,46.28,0,0,1,18.18,18.06l-25.31,13.81q-5.54-11.74-18.41-11.74a16.91,16.91,0,0,0-9.55,2.53A7.88,7.88,0,0,0,1614.7,263.34Z"/></g></g></svg>