<svg xmlns="http://www.w3.org/2000/svg" version="1.1" xmlns:xlink="http://www.w3.org/1999/xlink" xmlns:svgjs="http://svgjs.com/svgjs" width="1000" height="1000"><rect width="1000" height="1000" rx="250" ry="250" fill="#ededed"></rect><g transform="matrix(1.9698999290836026,0,0,1.9698999290836026,-0.00002190325767514878,132.61851746139303)"><svg xmlns="http://www.w3.org/2000/svg" version="1.1" xmlns:xlink="http://www.w3.org/1999/xlink" xmlns:svgjs="http://svgjs.com/svgjs" width="507.64" height="373"><svg xmlns="http://www.w3.org/2000/svg" xmlns:xlink="http://www.w3.org/1999/xlink" viewBox="0 0 507.64 373"><defs><linearGradient id="linear-gradient" y1="186.5" x2="507.64" y2="186.5" gradientUnits="userSpaceOnUse"><stop offset="0" stop-color="#5d59ea"></stop><stop offset="1" stop-color="#9a91ff"></stop></linearGradient></defs><title>logo-5</title><g id="Layer_2" data-name="Layer 2"><g id="Layer_1-2" data-name="Layer 1"><path d="M334.42,211.1c19.63,2.35,39,4.88,58.5,2.46,21.88-2.71,39.19-13.72,54.45-29.06a312.85,312.85,0,0,1,26.51-23.34,41.46,41.46,0,0,1,21.28-9,20.36,20.36,0,0,1,12.48,2.43c-.08.16-.17.46-.24.46-11.73-.29-21.63,4.29-29.85,12.19-6.78,6.5-13,13.58-19.2,20.67-8,9.18-16.1,18.18-26.82,24.28-3.18,1.8-6.57,3.22-10.17,5a108.61,108.61,0,0,0,23.4,11.09c12,4,23.95,4.41,35.79-.82,7.33-3.24,14.7-4,22,.59-8.54-1.51-15.86,1.63-23,5.7-10.6,6-22,5.15-33.2,2.8-11-2.3-21.76-5.85-32.79-7.93-18.26-3.45-36.78-4-55.33-3-14.89.74-29.51,3-43.36,8.81-20.81,8.73-34.22,24.13-40.48,45.7-2.33,8.06-.93,16.09,1.24,24,1.42,5.21,3,10.42,4,15.72,2.21,11.32-.46,21.91-5.46,32.05-.62,1.26-1.26,2.51-1.88,3.77-.05.09,0,.21,0,.58,5.58.69,11.38.73,16.77,2.25A22.17,22.17,0,0,0,308,355.84c2.61-1.63,5.65-2.58,8.56-3.87a31.1,31.1,0,0,1-2-3.87c-.89-2.58-.69-4.94,2.07-6.4s5.89-2.75,8.49-4.59,4.81-4.33,7.34-6.67l10.17,4.9c.12-.23.23-.46.34-.68-3.29-1.82-6.46-3.92-9.92-5.32-1.63-.66-3.88-.31-5.71.14-4.79,1.19-8.88-2.17-7.53-7,1-3.51,0-5.9-1.87-8.56-2.87-4.06-5.52-8.28-8.19-12.48a11.8,11.8,0,0,1-.89-2.63l1.17-.69c.69,1.18,1.39,2.36,2.09,3.54L313,301c-.63-1.15-1.26-2.3-2.05-3.77,4.48-3.88,9-7.82,13.91-12.08l2.39,6-4.91,3.18.24.47,12.94-5.49c3.41,7.69,6.84,15.14,9.93,22.72.38.95-1,2.64-1.67,4.12,7.59-5.66,11,1.44,16.16,6,1-2.64,2-4.82,2.65-7.11,1.25-4.63,2.28-9.32,3.47-14.26-1.15,1-2.6,2.08-3.82,3.37-2.43,2.57-3.68,2.76-6.31.6s-5.22-4.29-8.05-6.62a10.26,10.26,0,0,1,0-1.66,8.76,8.76,0,0,0-2.77-8.39c-1.4-1.32-2.1-3.76-2.36-5.79-.23-1.74-.22-3-2.2-3.63a18.89,18.89,0,0,1-3.75-2.26l1-1.33h5.1c-2.9-2.31-6-3.61-5.47-7.89,5.26,1.53,8-1.9,11-5.37s7.19-4.92,12.47-4.88l-3-3.66,6.05,2.57,1-2c.5,1.13.88,2,1.21,2.71l5.76-1.59c.09.21.18.43.26.64l-3.39,2.26c3,1.46,6.14,2.37,8.55,4.19,8.45,6.37,9.81,20.5,3.07,28.63a2.69,2.69,0,0,0-.65,2.19c1.28,2.71,2.16,6.13,4.34,7.81,9.9,7.66,14.11,18,15.67,29.92,1.06,8.08,1.82,16.18-.45,24.17-.93,3.29-2.44,6.41-3.69,9.6,2.89-.85,6-2,9.12-2.64,10.78-2.12,20.84.6,30.55,5,2.55,1.16,4.51,1.51,7.14-.2,4.4-2.85,9.51-3.45,14.7-2.63,7.39,1.18,13.82,4.56,20.66,9.09h-446c9.08-9.27,25-11.64,36.22-5.66,1.08.57,2.85.27,4.16-.12,6.09-1.81,12-4.24,18.22-5.61,7.58-1.67,15-.28,22.21,2.73,3.9,1.64,8.11,2.53,12.19,3.75.11-.41.23-.82.34-1.24a25.53,25.53,0,0,0-2.84-.69c-2.87-.36-4.65-2.34-3.39-4.85,3-5.93,4-12.23,5-18.65.33-2.14,1.89-4.08,2.81-6.15.52-1.18.86-2.43,1.43-4.09-8.7.19-16.86,2-23.57-1.08-3.9,1.18-7.06,1.91-10,3.1-5.32,2.13-10.55,4.48-15.75,6.89a2.86,2.86,0,0,0-1,2.39A18.75,18.75,0,0,0,79.15,348c1.3,3.39.63,6.87-1.58,7.79-2.92,1.22-7-.55-8.36-3.77a32.73,32.73,0,0,1-1-3.75,80.3,80.3,0,0,0-2.47-7.8c-1-2.31-.78-4.05,1.54-5.14,6.34-3,12.7-5.9,19.1-8.74a49.22,49.22,0,0,1,5.38-1.74c-.35-1.2-.73-2.47-1.12-3.77,5.07-2.37,8.15-6.42,10.38-11a378.83,378.83,0,0,1,36-60.43,8.45,8.45,0,0,0,.79-2.76,21.47,21.47,0,0,0-2.92-.64q-5.72-.48-11.45-.82c-1.57-.1-3.15,0-4.9,0-5.87,9.51-8.83,11.59-17.45,9.63l10.8-9.23c-.32-.39-.64-.77-1-1.16l-9.07,7.25c2.14-7,7.56-8.94,14.3-9.93l-4-3.44,1.49-1.73,4.2,3.55L120,236.2,123,240c-.13.39-.26.78-.4,1.17a24.35,24.35,0,0,1,2.74-1.59,5.15,5.15,0,0,1,2.3-.35c2.33.17,3.93-.17,5-2.8a54.87,54.87,0,0,0,2.52-8.81c2.23-9.46,15.81-12.41,23.56-5.37a42.52,42.52,0,0,0,4.73,3.17c.1-1.75.16-2.71.23-3.85l4,4.21c-2.15,3.57-5.41,6.68-5.17,11.34.06,1.13.2,2.58.9,3.27,1.76,1.73.88,3.3.3,5-.68,2-1.08,4.17-2,6.1a3.82,3.82,0,0,1-2.55,2.07,25,25,0,0,1-5.34-.88c-2.19,7.86,5.92,13.26,18.94,12.19,0-2.81-.17-5.7.09-8.55a4.65,4.65,0,0,1,1.87-3.24,36.7,36.7,0,0,1,20.65-4.41,3.67,3.67,0,0,1,2.38,1.47c-8.09-.17-15.74.86-22.15,4.42a73.25,73.25,0,0,1,1.28,8c.19,4.4,0,8.81,0,13.22l.93.11a14.09,14.09,0,0,0,.4-2.38c0-4.66-.05-9.32.07-14a3.11,3.11,0,0,1,1.31-2.43c7-2.46,14.15-4,21.9-2.5v32.56l-23,2.5c-.12-1.62-.29-4-.45-6.38l-.94,0v7.94l-1.27.42-3.73-7.24c-2,.15-4.54.48-7.1.52a18.25,18.25,0,0,1-11.73-4c-1.13-.88-2.82-1-4-1.87s-1.67-2.07-2.81-3.57c-2.85,9.59-5.39,18.94-8.45,28.13a29.74,29.74,0,0,0-.62,18c1.84,6.68,1.75,13.3-2,19.75-2.05,3.57-3,7.87-4,11.94-1.18,4.67.24,6.28,4.78,7.67,1.81.55,3.23,2.38,5.52,4.17,2-1.1,5.08-2.31,7.6-4.22,7.1-5.41,14.78-5.7,22.77-2.92,4.17,1.45,8.11,3.58,12.21,5.26,8.21,3.36,15.36,2.41,21.82-4.37,11.92-12.49,18-27.44,19.18-44.36,1.85-26.17-4.26-50.31-21.48-70.49-8.53-10-18.86-18.46-28.42-27.56a4.7,4.7,0,0,0-2.61-1.05c-18.65-1.9-37.32-3.28-56.08-1.89a12.56,12.56,0,0,0-5.32,1.94c-8.21,5-16.27,10.31-24.49,15.32-17,10.38-35.58,15.39-55.43,16.41-13.79.72-19.28,2.72-31,9.43L0,256.1C2.25,253.7,4.27,251,6.79,249c6.45-5.26,14.34-6.88,22.3-8.1,5.35-.82,10.72-1.46,16.07-2.27C65.52,235.5,82.37,225.08,98.4,213c1.8-1.36,3.49-2.86,5.37-4.41-4.09-6.46-9.93-9.39-17.15-8.32a68.76,68.76,0,0,0-16.54,4.43c-12.3,5.19-24.39,4.59-36.77.58a66.73,66.73,0,0,0-14.53-3.15c-4.3-.38-8.71.54-13,.88a19.32,19.32,0,0,1,14.92-5.6c8.52.34,17,1.21,25.53,2.14,8.71.95,16.81-.26,24.1-5.46,5.26-3.75,11.11-5.1,18.42-3.29-2.31-4-4-7.24-6-10.27-10.62-16.16-25.43-27.68-42.16-36.75-9.3-5-19.13-9.11-28.72-13.61-.95-.44-1.93-.84-2.9-1.26l.2-.77c6.52,1.18,13.11,2.11,19.57,3.57,25.72,5.83,47.7,17.89,64,39.1,2.24,2.91,4.24,6,6.2,9.12,7.8,12.38,18.61,17,32.77,13.44a92.77,92.77,0,0,0,13.34-5,3.26,3.26,0,0,0,1.5-2.78c-3.24-12.9-7.75-25.25-16.53-35.58a38.39,38.39,0,0,0-26.21-14c-12.68-1.3-24.39-4.88-33.35-14.71-6-6.61-9.61-14.48-11.93-23.06,1.17,1.87,2.44,3.69,3.51,5.63,8.38,15.14,20.94,23.76,38.37,25.24a124.47,124.47,0,0,1,14.37,2.6,42.63,42.63,0,0,1,26.85,17.41,3.49,3.49,0,0,0,2.08,1.5c-.81-6.15-1.47-12.32-2.45-18.44a93.93,93.93,0,0,0-7.8-26.36c-5.65-11.7-14.38-18.68-27.82-19.85a144.91,144.91,0,0,1-25.81-4.63C68.75,78.27,62.64,70.29,62,60c0-.51,0-1,0-1.64.39.19.65.23.72.36,5.47,11.73,15.63,16.15,27.61,17.72,6.65.87,13.34,1.51,20,2.6,3.69.61,7.25,1.94,11.14,3,.07-16.89,1.41-33.81-5.59-49.91a71.39,71.39,0,0,1-3.94-12.68c-1.23-5.49-.44-10.69,4-14.87-3,7.85-.2,14.93,2.84,21.92,3.84,8.83,8.59,17.42,9.3,27.2.75,10.24.7,20.54,1.1,30.81a5.94,5.94,0,0,0,1.25,3.73c7.25,7.23,13.69,15,18.51,24.12.09.16.35.22.8.49C160.4,97.41,170.38,81.76,171.3,62a146.62,146.62,0,0,1,2.81-22.49c1.55-7.47,6-13.31,13.5-17.35a19.27,19.27,0,0,1-1,2c-5.47,7.8-7.75,16.6-8.14,26-.31,7.46-.35,14.93-.72,22.39a55.4,55.4,0,0,1-6.26,23c-3.51,6.71-7.37,13.24-10.8,20A24,24,0,0,0,158,124c-1.3,14.1-1,28.14,3.15,41.83,6.8,22.27,22.11,35.83,44,42.57,2.84.87,5.74,1.56,9,2.42-1.78-6.91-3.49-13.24-5-19.62-4.32-17.78-2.45-35.44.89-53.13,2.51-13.28,5.3-26.55,5.06-40.19-.21-11.65-2.26-23-8-33.15-9.08-16.16-9.56-32.93-5-50.29A99.13,99.13,0,0,1,206.93,0c-.48,4.53-.92,9.06-1.46,13.58-2.1,17.34.64,33.59,10.16,48.54a62.44,62.44,0,0,1,10,27.67c11.2-19.41,23.93-36.36,40.69-50a31.3,31.3,0,0,1,6.1-4c-4.25,5-8.63,9.83-12.72,14.91-16.71,20.77-29.24,43.64-34.83,70-5,23.48-3.48,46.69,3,69.69.2.71.5,1.4.78,2.2.33-.29.67-.45.78-.71a75.81,75.81,0,0,1,23.24-30.39c19.8-15.64,28.41-36.94,32.39-60.95a320.53,320.53,0,0,1,7.18-34.56c1.64-5.83,5.82-11,8.89-16.38a6.88,6.88,0,0,1,2.7-2.87c-4.35,24.13-8,48-6.5,72.22.33.14.56.34.7.28,13.3-5.32,25.64-12.06,34.87-23.46,4.55-5.61,6.82-12.18,8.62-19,1.75-6.69,3.51-13.41,5.88-19.89,4.14-11.32,12.66-18.3,23.77-22.39a14.42,14.42,0,0,1,2.27-.22c-1.54,1.24-2.41,1.89-3.21,2.6a58.84,58.84,0,0,0-19.6,35c-.69,4-1.87,8-2.73,12-3.89,18-14.84,30.15-31.35,37.63-3.85,1.74-7.75,3.35-11.59,5.09-5.93,2.7-10.66,6.88-13.31,12.8-6.64,14.85-16.44,27.47-27.5,39.13-20,21.08-20.49,48.22-6.68,71.87,1.18,2,2.51,3.95,3.84,6,3.77-5.8,7.14-11.45,10.95-16.78a113.49,113.49,0,0,1,46.21-37.78C331.1,196,336.39,187.53,336,173.55c-.2-6.81-.7-13.64-.45-20.43.51-13.48,5.73-25.23,14.42-35.41,12.94-15.16,29.95-24.17,48.31-31.1-1.71,1.08-3.43,2.15-5.13,3.24s-3.45,2.24-5.15,3.4c-12.15,8.3-23.3,17.68-31.38,30.19-9,13.86-11.45,28.76-6.69,44.7.33,1.12.73,2.21,1.27,3.81,11.86-10.09,26.3-13.08,40.22-17.27a74.53,74.53,0,0,0,32.07-19.54,102,102,0,0,1,13.38-11.25c2.78-2,6.31-2.88,9.57-3.7-5.29,6.2-10.55,12.41-15.88,18.57-2,2.37-4.15,4.72-6.39,6.91-8.95,8.75-19.7,14.3-31.63,17.82a101.5,101.5,0,0,0-27.44,12.3c-6.69,4.42-12.63,9.63-16.21,16.92C345.35,199.85,342.08,207,334.42,211.1Zm14,130.92c-5.35,5.93-10.07,11.17-14.8,16.4,11-4.22,20.92-2.66,30.14,4.85a39.08,39.08,0,0,0-7.65-9.17C352.35,351.05,349.18,347.87,348.38,342ZM158.89,272.26a16.93,16.93,0,0,0,14.25,5.63c-.15-2.4-.29-4.39-.41-6.24Zm37.23-13.94-9.82.88V264h10.27C196.42,262.09,196.3,260.52,196.12,258.32Z" style="fill:url(#linear-gradient)"></path></g></g></svg></svg></g></svg>